<?xml version="1.0" encoding="utf-8"?>
<!-- Generator: Adobe Illustrator 16.0.0, SVG Export Plug-In . SVG Version: 6.00 Build 0)  -->
<!DOCTYPE svg PUBLIC "-//W3C//DTD SVG 1.1//EN" "http://www.w3.org/Graphics/SVG/1.1/DTD/svg11.dtd">
<svg version="1.1" id="Calque_1" xmlns="http://www.w3.org/2000/svg" xmlns:xlink="http://www.w3.org/1999/xlink" x="0px" y="0px"
	 width="300px" height="300px" viewBox="0 0 300 300" enable-background="new 0 0 300 300" xml:space="preserve">
<g>
	<path fill-rule="evenodd" clip-rule="evenodd" d="M24.885,300c-0.69-0.303-1.365-0.647-2.071-0.905
		c-7.138-2.601-11.375-8.996-10.948-16.549c0.409-7.224,5.486-13.114,12.78-14.839c0.742-0.176,1.471-0.404,2.372-0.655
		c-2.007-22.396,1.489-43.781,11.078-64.08c9.544-20.204,23.645-36.548,42-49.084c-2.464-5.831-5.115-11.36-7.174-17.103
		c-11.305-31.519-5.633-60.45,13.953-86.978c11.427-15.478,25.437-28.486,40.409-40.471c5.542-4.436,11.819-7.465,18.77-9.036
		c2.536,0,5.072,0,7.609,0c11.915,2.79,21.032,10.221,29.864,18.089c12.254,10.913,24.063,22.237,33.188,36.041
		c10.691,16.17,16.898,33.735,16.358,53.318c-0.416,15.17-4.789,29.324-11.558,42.806c-0.476,0.949-0.945,1.903-1.449,2.915
		c38.419,28.1,56.217,65.821,53.441,113.556c0.466,0.156,1.157,0.453,1.876,0.623c7.671,1.821,12.743,7.713,13.061,15.199
		c0.32,7.602-4.101,13.917-11.504,16.461c-0.524,0.181-1.016,0.46-1.523,0.692C191.903,300,108.395,300,24.885,300z M204.915,83.827
		c0,1.943-0.001,2.813,0,3.683c0.014,19.76-3.884,38.499-14.3,55.588c-18.909,31.024-60.442,30.696-79.371,2.354
		c-9.863-14.767-14.328-31.21-15.551-48.686c-0.289-4.105-0.042-8.249-0.042-13.346c-6.032,3.789-11.182,7.075-16.392,10.268
		c-1.566,0.959-2.157,2.153-2.346,4.002c-1.825,17.91,2.596,34.507,11.053,50.033c4.413,8.098,9.895,15.616,14.943,23.363
		c1.767,2.711,1.665,5.389-0.453,7.038c-2.224,1.736-5.026,1.18-7.091-1.482c-1.494-1.924-2.938-3.891-4.336-5.887
		c-2.034-2.907-4.006-5.857-5.998-8.779c-38.681,26.098-53.141,70.963-48.282,105.077c15.146,0,30.299,0,45.589,0
		c-0.119-1.092-0.182-1.965-0.313-2.826c-3.4-22.544-6.816-45.085-10.206-67.631c-0.699-4.648,1.018-6.735,5.594-6.738
		c48.477-0.017,96.954-0.015,145.429,0c4.611,0.001,6.334,2.061,5.64,6.699c-2.808,18.694-5.655,37.382-8.476,56.074
		c-0.72,4.772-1.385,9.555-2.098,14.506c15.445,0,30.53,0,45.598,0c5.204-35.356-11.118-80.818-48.335-105.083
		c-0.542,0.79-1.077,1.59-1.633,2.379c-2.798,3.986-5.551,8.009-8.424,11.943c-2.135,2.918-4.974,3.532-7.253,1.772
		c-2.206-1.703-2.322-4.43-0.301-7.248c0.626-0.872,1.35-1.681,1.904-2.594c5.104-8.396,10.736-16.527,15.145-25.276
		c7.138-14.166,10.445-29.313,8.693-45.298c-0.1-0.896-0.336-2.14-0.957-2.558C216.807,91.445,211.162,87.864,204.915,83.827z
		 M218.541,199.462c-45.738,0-91.203,0-136.791,0c3.224,21.454,6.515,42.634,9.49,63.857c0.489,3.479,1.76,4.033,4.925,4.021
		c31.697-0.122,63.396-0.074,95.094-0.074c4.975,0,9.948-0.032,14.922,0.02c1.447,0.017,2.269-0.208,2.526-1.951
		C211.921,243.456,215.222,221.59,218.541,199.462z M195.669,90.09c-0.117-2.093-0.413-4.819-0.37-7.539
		c0.03-2.112-0.85-3.051-2.776-3.751c-28.401-10.322-56.781-10.354-85.196-0.059c-1.657,0.601-2.15,1.511-2.285,3.179
		c-1.09,13.484,0.239,26.746,4.846,39.429c2.434,6.7,5.63,13.311,9.565,19.244c14.692,22.154,46.321,22.154,61.495,0.126
		C191.335,125.639,194.979,108.639,195.669,90.09z M80.62,81.127c46.667-26.016,92.825-25.854,139.19,0.481
		c-0.429-1.236-0.692-2.254-1.122-3.195c-1.818-3.981-3.432-8.085-5.581-11.882c-11.422-20.173-28.126-35.548-46.159-49.506
		c-13.156-10.183-21.63-9.945-34.755,0.386c-13.363,10.516-25.545,22.331-36.122,35.691C89.447,61.469,84.188,70.642,80.62,81.127z
		 M149.82,290.633c39.981,0,79.962,0.001,119.942-0.002c1.071,0,2.156,0.063,3.214-0.073c3.749-0.474,6.271-3.549,6.09-7.323
		c-0.203-4.244-3.277-6.602-8.653-6.602c-80.156-0.002-160.312-0.002-240.467,0.001c-0.876,0-1.767-0.045-2.629,0.077
		c-3.774,0.532-6.272,3.569-6.087,7.334c0.204,4.189,3.22,6.585,8.358,6.586C69.666,290.635,109.744,290.633,149.82,290.633z"/>
	<path fill-rule="evenodd" clip-rule="evenodd" fill="#FFFFFF" d="M96.165,267.34 M150.284,230.244
		c-7.298-0.053-13.045,5.603-13.069,12.856c-0.021,7.141,5.584,12.908,12.652,13.014c7.27,0.109,13.139-5.551,13.215-12.74
		C163.159,236.067,157.532,230.297,150.284,230.244z"/>
	<path fill-rule="evenodd" clip-rule="evenodd" d="M150.284,230.244c7.249,0.053,12.875,5.823,12.798,13.13
		c-0.076,7.189-5.945,12.85-13.215,12.74c-7.068-0.105-12.673-5.873-12.652-13.014C137.238,235.847,142.986,230.191,150.284,230.244
		z"/>
</g>
</svg>
