<?xml version="1.0" encoding="utf-8"?>
<!-- Generator: Adobe Illustrator 16.0.0, SVG Export Plug-In . SVG Version: 6.00 Build 0)  -->
<!DOCTYPE svg PUBLIC "-//W3C//DTD SVG 1.1//EN" "http://www.w3.org/Graphics/SVG/1.1/DTD/svg11.dtd">
<svg version="1.1" id="Calque_1" xmlns="http://www.w3.org/2000/svg" xmlns:xlink="http://www.w3.org/1999/xlink" x="0px" y="0px"
	 width="300px" height="300px" viewBox="0 0 300 300" enable-background="new 0 0 300 300" xml:space="preserve">
<g>
	<path fill="#333333" d="M194.83,140.999c0-24.58-20.002-44.581-44.581-44.581c-24.583,0-44.583,20.001-44.583,44.581
		c0,24.584,20,44.582,44.583,44.582C174.828,185.581,194.83,165.583,194.83,140.999z M184.819,154.086h-10.187
		c0.847-3.014,1.403-6.118,1.653-9.279h10.738C186.691,148.042,185.935,151.147,184.819,154.086z M184.819,127.917
		c1.115,2.935,1.872,6.044,2.205,9.279h-10.738c-0.25-3.162-0.807-6.269-1.653-9.279H184.819z M180.867,120.306h-9.091
		c-2.583-5.468-6.175-10.433-10.604-14.627C169.281,108.193,176.203,113.422,180.867,120.306z M131.853,137.196
		c0.3-3.184,0.965-6.294,1.978-9.279h32.836c1.011,2.985,1.678,6.095,1.978,9.279H131.853z M168.644,144.807
		c-0.3,3.184-0.967,6.296-1.978,9.279H133.83c-1.013-2.983-1.677-6.096-1.978-9.279H168.644z M150.249,106.678
		c5.375,3.515,9.763,8.219,12.936,13.628h-25.871C140.486,114.897,144.874,110.193,150.249,106.678z M139.324,105.679
		c-4.429,4.194-8.021,9.159-10.604,14.627h-9.09C124.295,113.422,131.217,108.193,139.324,105.679z M115.678,127.917h10.187
		c-0.848,3.011-1.405,6.117-1.655,9.279h-10.734C113.807,133.961,114.563,130.852,115.678,127.917z M115.678,154.086
		c-1.115-2.938-1.871-6.044-2.203-9.279h10.734c0.25,3.161,0.807,6.266,1.655,9.279H115.678z M119.629,161.694h9.09
		c2.583,5.471,6.175,10.438,10.604,14.628C131.217,173.812,124.295,168.58,119.629,161.694z M150.249,175.327
		c-5.375-3.517-9.763-8.222-12.936-13.633h25.871C160.012,167.105,155.624,171.811,150.249,175.327z M161.173,176.322
		c4.429-4.19,8.021-9.157,10.604-14.628h9.091C176.203,168.58,169.281,173.812,161.173,176.322z"/>
	<path d="M262.552,247.088c18.65,0,33.738-15.088,33.738-33.682V56.1c0-18.592-15.088-33.678-33.738-33.678H37.889
		c-18.596,0-33.683,15.086-33.683,33.678v157.307c0,18.594,15.087,33.682,33.683,33.682h78.647v15.727H95.484
		c-11.447,0-20.925,8.164-23.031,18.95h155.588c-2.105-10.786-11.584-18.95-23.02-18.95h-21.063v-15.727H262.552z M150.25,231.358
		c-4.385,0-7.939-3.55-7.939-7.937c0-4.38,3.554-7.941,7.939-7.941c4.381,0,7.934,3.562,7.934,7.941
		C158.184,227.809,154.631,231.358,150.25,231.358z M37.889,202.168c-6.145,0-11.192-5.062-11.192-11.243V56.1
		c0-6.145,5.048-11.187,11.192-11.187h224.663c6.204,0,11.246,5.042,11.246,11.187v134.825c0,6.182-5.042,11.243-11.246,11.243
		H37.889z"/>
	<g>
		<path fill="#333333" d="M252.849,73.98c-15.422-15.424-40.524-15.427-55.95,0.003l5.631,5.631
			c12.323-12.324,32.37-12.317,44.69-0.001L252.849,73.98z"/>
		<path fill="#333333" d="M206.145,83.233l5.636,5.634c7.22-7.222,18.966-7.224,26.188-0.002l5.631-5.632
			C233.275,72.906,216.474,72.908,206.145,83.233z"/>
		<path fill="#333333" d="M234.375,92.461c-5.25-5.25-13.756-5.251-18.999,0l9.499,9.432L234.375,92.461z"/>
	</g>
</g>
</svg>
