<?xml version="1.0" encoding="utf-8"?>
<!-- Generator: Adobe Illustrator 16.0.0, SVG Export Plug-In . SVG Version: 6.00 Build 0)  -->
<!DOCTYPE svg PUBLIC "-//W3C//DTD SVG 1.1//EN" "http://www.w3.org/Graphics/SVG/1.1/DTD/svg11.dtd">
<svg version="1.1" id="Calque_1" xmlns="http://www.w3.org/2000/svg" xmlns:xlink="http://www.w3.org/1999/xlink" x="0px" y="0px"
	 width="300px" height="250px" viewBox="0 0 300 250" enable-background="new 0 0 300 250" xml:space="preserve">
<g>
	<g>
		<g>
			<path fill="#FFFFFF" d="M6.081,232.557H1.62v-1.608h10.857v1.608H7.994v13.058H6.08L6.081,232.557L6.081,232.557z"/>
			<path fill="#FFFFFF" d="M29.055,230.948v6.136h7.095v-6.136h1.914v14.666H36.15v-6.876h-7.095v6.876h-1.893v-14.666H29.055
				L29.055,230.948z"/>
			<path fill="#FFFFFF" d="M61.996,238.738h-5.702v5.287h6.354v1.589h-8.247v-14.666h7.92v1.589h-6.027v4.635h5.702V238.738z"/>
			<path fill="#FFFFFF" d="M95.563,243.307c0.849,0.522,2.089,0.959,3.396,0.959c1.936,0,3.067-1.021,3.067-2.503
				c0-1.37-0.784-2.154-2.764-2.917c-2.393-0.848-3.873-2.088-3.873-4.156c0-2.285,1.892-3.98,4.743-3.98
				c1.501,0,2.589,0.348,3.242,0.717l-0.522,1.546c-0.478-0.262-1.458-0.698-2.786-0.698c-2.002,0-2.763,1.199-2.763,2.2
				c0,1.371,0.892,2.045,2.916,2.828c2.48,0.957,3.743,2.154,3.743,4.311c0,2.261-1.675,4.222-5.137,4.222
				c-1.415,0-2.959-0.414-3.743-0.937L95.563,243.307z"/>
			<path fill="#FFFFFF" d="M119.604,231.122c0.914-0.152,2.11-0.284,3.635-0.284c1.871,0,3.242,0.435,4.112,1.22
				c0.805,0.696,1.284,1.761,1.284,3.067c0,1.328-0.392,2.371-1.131,3.134c-1.002,1.066-2.633,1.61-4.483,1.61
				c-0.566,0-1.088-0.022-1.522-0.131v5.874h-1.893v-14.49H119.604z M121.498,238.195c0.413,0.108,0.935,0.151,1.565,0.151
				c2.287,0,3.678-1.109,3.678-3.134c0-1.937-1.372-2.873-3.46-2.873c-0.827,0-1.458,0.066-1.784,0.153L121.498,238.195
				L121.498,238.195z"/>
			<path fill="#FFFFFF" d="M147.302,245.614v-6.225l-4.635-8.442h2.153l2.067,4.048c0.566,1.109,1.001,2.002,1.458,3.024h0.043
				c0.413-0.957,0.914-1.917,1.48-3.024l2.11-4.048h2.154l-4.919,8.421v6.244h-1.913V245.614z"/>
			<path fill="#FFFFFF" d="M170.603,230.948v14.666h-1.893v-14.666H170.603L170.603,230.948z"/>
			<path fill="#FFFFFF" d="M186.964,245.614v-14.666h2.067l4.699,7.419c1.088,1.719,1.937,3.264,2.633,4.768l0.044-0.022
				c-0.175-1.959-0.218-3.743-0.218-6.028v-6.137h1.786v14.665h-1.916l-4.656-7.442c-1.022-1.632-2.003-3.306-2.742-4.896
				l-0.066,0.022c0.109,1.85,0.153,3.611,0.153,6.05v6.268H186.964z"/>
			<path fill="#FFFFFF" d="M225.495,244.962c-0.849,0.305-2.523,0.805-4.504,0.805c-2.219,0-4.048-0.566-5.483-1.937
				c-1.262-1.218-2.046-3.177-2.046-5.463c0.022-4.373,3.024-7.571,7.942-7.571c1.698,0,3.026,0.369,3.655,0.673l-0.458,1.547
				c-0.782-0.348-1.761-0.631-3.241-0.631c-3.567,0-5.896,2.218-5.896,5.896c0,3.722,2.241,5.918,5.658,5.918
				c1.24,0,2.088-0.174,2.522-0.391v-4.374h-2.979v-1.521h4.829L225.495,244.962L225.495,244.962z"/>
			<path fill="#FFFFFF" d="M249.035,238.738h-5.701v5.287h6.354v1.589h-8.247v-14.666h7.92v1.589h-6.027v4.635h5.701V238.738
				L249.035,238.738z"/>
			<path fill="#FFFFFF" d="M265.199,231.144c0.957-0.195,2.329-0.303,3.634-0.303c2.024,0,3.331,0.369,4.243,1.196
				c0.74,0.654,1.153,1.654,1.153,2.787c0,1.936-1.218,3.219-2.764,3.741v0.066c1.132,0.391,1.807,1.434,2.154,2.959
				c0.478,2.046,0.828,3.46,1.132,4.026h-1.959c-0.239-0.415-0.567-1.677-0.979-3.504c-0.436-2.025-1.218-2.786-2.937-2.852h-1.784
				v6.355h-1.894V231.144L265.199,231.144z M267.093,237.823h1.936c2.023,0,3.308-1.109,3.308-2.785
				c0-1.894-1.372-2.721-3.372-2.743c-0.915,0-1.567,0.088-1.872,0.175L267.093,237.823L267.093,237.823z"/>
			<path fill="#FFFFFF" d="M289.695,243.307c0.849,0.522,2.09,0.959,3.396,0.959c1.937,0,3.067-1.021,3.067-2.503
				c0-1.37-0.783-2.154-2.764-2.917c-2.395-0.848-3.873-2.088-3.873-4.156c0-2.285,1.893-3.98,4.742-3.98
				c1.502,0,2.59,0.348,3.242,0.717l-0.522,1.546c-0.476-0.262-1.456-0.698-2.785-0.698c-2.001,0-2.764,1.199-2.764,2.2
				c0,1.371,0.894,2.045,2.917,2.828c2.48,0.957,3.742,2.154,3.742,4.311c0,2.261-1.675,4.222-5.136,4.222
				c-1.415,0-2.959-0.414-3.743-0.937L289.695,243.307z"/>
		</g>
		<g>
			<g>
				<ellipse fill="#FFFFFF" cx="148.244" cy="73.111" rx="85.938" ry="33.399"/>
			</g>
			<g>
				<ellipse fill="#FFFFFF" cx="148.244" cy="19.044" rx="42.356" ry="15.23"/>
			</g>
			<polygon fill="#FFFFFF" points="190.514,18.5 148.215,18.5 105.915,18.5 99.237,75.067 148.215,84.857 197.192,75.067 			"/>
			<g>
				<ellipse fill="#FFFFFF" cx="148.244" cy="73.111" rx="85.938" ry="33.399"/>
			</g>
			<g>
				<ellipse fill="#FFFFFF" cx="148.244" cy="19.044" rx="42.356" ry="15.23"/>
			</g>
			<polygon fill="#FFFFFF" points="190.514,18.5 148.215,18.5 105.915,18.5 99.237,75.067 148.215,84.857 197.192,75.067 			"/>
			<path fill="#FFFFFF" d="M147.882,109.877c0,0-32.635-1.087-50.04-6.527c0,0,5.439,17.405,11.966,22.844
				c6.526,5.439,26.107,4.352,27.195,4.352c1.087,0,5.439-11.966,10.878-11.966c5.439,0,9.791,11.966,10.878,11.966
				c1.087,0,20.669,1.088,27.194-4.352c6.527-5.439,11.967-22.844,11.967-22.844C180.517,108.79,147.882,109.877,147.882,109.877z"
				/>
			<path fill="#FFFFFF" d="M147.882,109.877c0,0-32.635-1.087-50.04-6.527c0,0,5.439,17.405,11.966,22.844
				c6.526,5.439,26.107,4.352,27.195,4.352c1.087,0,5.439-11.966,10.878-11.966c5.439,0,9.791,11.966,10.878,11.966
				c1.087,0,20.669,1.088,27.194-4.352c6.527-5.439,11.967-22.844,11.967-22.844C180.517,108.79,147.882,109.877,147.882,109.877z"
				/>
			<g>
				<path fill="#FFFFFF" d="M128.301,192.214c0,0-45.847-42.483-61.454-98.034c0,0-9.754,10.893-13.656,23.964
					C49.291,131.215,88.307,174.784,128.301,192.214z"/>
				<polygon fill="#FFFFFF" points="82.247,161.266 20.027,176.118 10.272,203.43 37.583,203.43 41.486,181.971 93.185,166.363 				
					"/>
			</g>
			<g>
				<path fill="#FFFFFF" d="M168.006,192.214c0,0,45.847-42.483,61.454-98.034c0,0,9.755,10.893,13.656,23.964
					C247.018,131.215,208,174.784,168.006,192.214z"/>
				<polygon fill="#FFFFFF" points="214.061,161.266 276.281,176.118 286.035,203.43 258.723,203.43 254.821,181.971 
					203.122,166.363 				"/>
			</g>
			<path opacity="0.3" fill="#FFFFFF" enable-background="new    " d="M140.63,23.758c0,0-0.334,0-0.904-0.012
				c-2.465-0.051-9.377-0.328-13.058-1.8l-6.324,66.517c0,0,5.575,3.06,15.827,3.49L140.63,23.758z"/>
			<path opacity="0.3" fill="#FFFFFF" enable-background="new    " d="M119.78,128.598c0,0-5.913-0.797-9.79-4.397
				c-3.878-3.601-8.884-18.131-8.884-18.131s9.79,2.538,15.773,3.173C116.879,109.243,115.065,118.171,119.78,128.598z"/>
			<path opacity="0.53" fill="#FFFFFF" enable-background="new    " d="M188.738,21.149l7.049,62.133c0,0-1.356,1.442-2.712,1.575
				l-6.098-63.708L188.738,21.149L188.738,21.149z"/>
			<path fill="#FFFFFF" d="M184.28,126.194c0,0,5.8-3.493,12.229-21.102l-4.402,1.417C192.106,106.51,190.85,118.369,184.28,126.194
				z"/>
			<path opacity="0.3" fill="#FFFFFF" enable-background="new    " d="M97.842,171.175c0,0-23.825-18.771-40.902-55.531
				c0,0-1.393,1.82-2.032,6.133C54.269,126.088,70.919,153.61,97.842,171.175z"/>
			<polygon opacity="0.3" fill="#FFFFFF" enable-background="new    " points="82.321,162.983 21.161,177.456 12.478,201.996 
				19.902,201.996 26.194,179.974 84.713,164.998 			"/>
		</g>
	</g>
</g>
</svg>
