<?xml version="1.0" encoding="utf-8"?>
<!-- Generator: Adobe Illustrator 16.0.0, SVG Export Plug-In . SVG Version: 6.00 Build 0)  -->
<!DOCTYPE svg PUBLIC "-//W3C//DTD SVG 1.1//EN" "http://www.w3.org/Graphics/SVG/1.1/DTD/svg11.dtd">
<svg version="1.1" id="Calque_1" xmlns="http://www.w3.org/2000/svg" xmlns:xlink="http://www.w3.org/1999/xlink" x="0px" y="0px"
	 width="300px" height="300px" viewBox="0 0 300 300" enable-background="new 0 0 300 300" xml:space="preserve">
<g>
	<path fill-rule="evenodd" clip-rule="evenodd" fill="#FFFFFF" d="M176.348,276.942c0-2.291,0.003-4.052,0-5.811
		c-0.008-20.778-0.008-41.56-0.031-62.338c-0.008-6.557-1.196-7.874-7.403-7.899c-13.191-0.059-26.382-0.055-39.575-0.032
		c-6.127,0.009-7.565,1.522-7.571,7.843c-0.021,21.078-0.022,42.155-0.03,63.232c0,1.574,0,3.152,0,4.854
		c-21.607,0-42.649,0-64.037,0c0-1.939,0-3.548,0-5.16c-0.002-38.737,0.01-77.479-0.02-116.217c-0.005-6.34-3.24-10.081-8.425-10.02
		c-4.923,0.058-7.939,3.755-7.973,9.933c-0.038,6.828,0.021,13.654,0.023,20.479c0.008,36.071,0.04,72.14-0.022,108.208
		c-0.005,3.992,0.592,7.603,4.367,9.288c1.988,0.886,4.396,1.013,6.616,1.015c64.823,0.052,129.646,0.045,194.471,0.039
		c7.803,0,10.311-2.699,10.311-11.049c0.006-40.816,0-81.634-0.003-122.451c0-1.187,0.072-2.389-0.065-3.562
		c-0.675-5.786-6.312-9.064-11.411-6.722c-3.969,1.816-4.988,5.158-4.982,9.388c0.06,37.254,0.034,74.509,0.031,111.764
		c0,1.704,0,3.404,0,5.218C218.908,276.942,197.952,276.942,176.348,276.942z M87.142,62.625c0-1.916,0.001-3.506,0-5.094
		c-0.008-8.311,0.14-16.626-0.076-24.931c-0.174-6.683-5.322-10.404-11.088-8.202c-4.164,1.59-5.557,5.115-5.545,9.529
		c0.039,14.545,0.103,29.091-0.076,43.634c-0.023,1.946-0.916,4.357-2.204,5.746c-11.56,12.448-23.294,24.716-34.985,37.028
		C23.074,130.969,12.92,141.538,2.899,152.24c-3.177,3.394-3.232,9.08-0.49,12.155c2.979,3.347,8.868,3.541,12.388,0.357
		c1.071-0.967,2.029-2.069,3.028-3.125c39.912-42.169,79.83-84.333,119.719-126.525c3.744-3.958,7.301-8.116,10.97-12.209
		c1.299,1.253,1.834,1.734,2.333,2.256c35.056,36.547,70.108,73.096,105.161,109.647c8.938,9.323,17.852,18.673,26.809,27.977
		c4.177,4.344,8.667,4.596,12.357,0.805c3.662-3.762,3.457-8.423-0.59-12.933c-0.774-0.867-1.593-1.691-2.396-2.532
		c-33.385-34.945-66.774-69.889-100.163-104.831c-12.034-12.593-24.044-25.208-36.112-37.76c-4.829-5.02-8.733-4.945-13.579,0.044
		c-2.021,2.081-3.997,4.212-6.014,6.296C120.077,28.636,103.828,45.401,87.142,62.625z"/>
	<path fill-rule="evenodd" clip-rule="evenodd" d="M176.348,276.942c21.604,0,42.561,0,64.27,0c0-1.813,0-3.514,0-5.218
		c0.003-37.255,0.028-74.51-0.031-111.764c-0.006-4.229,1.014-7.571,4.982-9.388c5.1-2.343,10.736,0.936,11.411,6.722
		c0.138,1.173,0.065,2.375,0.065,3.562c0.003,40.817,0.009,81.635,0.003,122.451c0,8.35-2.508,11.049-10.311,11.049
		c-64.824,0.006-129.647,0.013-194.471-0.039c-2.22-0.002-4.627-0.129-6.616-1.015c-3.774-1.686-4.372-5.296-4.367-9.288
		c0.062-36.068,0.03-72.137,0.022-108.208c-0.002-6.824-0.061-13.65-0.023-20.479c0.034-6.177,3.05-9.875,7.973-9.933
		c5.185-0.062,8.42,3.679,8.425,10.02c0.03,38.737,0.017,77.479,0.02,116.217c0,1.612,0,3.221,0,5.16c21.387,0,42.43,0,64.037,0
		c0-1.702,0-3.28,0-4.854c0.008-21.077,0.009-42.154,0.03-63.232c0.006-6.32,1.444-7.834,7.571-7.843
		c13.192-0.022,26.383-0.026,39.575,0.032c6.207,0.025,7.396,1.343,7.403,7.899c0.023,20.778,0.023,41.56,0.031,62.338
		C176.351,272.891,176.348,274.651,176.348,276.942z"/>
	<path fill-rule="evenodd" clip-rule="evenodd" d="M87.142,62.625c16.687-17.224,32.935-33.989,49.179-50.762
		c2.017-2.084,3.992-4.216,6.014-6.296c4.846-4.99,8.75-5.064,13.579-0.044c12.068,12.552,24.078,25.167,36.112,37.76
		c33.389,34.942,66.778,69.886,100.163,104.831c0.804,0.841,1.622,1.666,2.396,2.532c4.047,4.51,4.252,9.171,0.59,12.933
		c-3.69,3.791-8.181,3.539-12.357-0.805c-8.957-9.304-17.87-18.653-26.809-27.977c-35.053-36.551-70.105-73.1-105.161-109.647
		c-0.5-0.522-1.034-1.003-2.333-2.256c-3.668,4.093-7.226,8.25-10.97,12.209C97.656,77.295,57.738,119.458,17.826,161.628
		c-0.999,1.056-1.957,2.158-3.028,3.125c-3.52,3.184-9.409,2.989-12.388-0.357c-2.742-3.075-2.687-8.762,0.49-12.155
		c10.021-10.702,20.174-21.271,30.269-31.905c11.691-12.312,23.425-24.58,34.985-37.028c1.288-1.389,2.18-3.799,2.204-5.746
		c0.179-14.543,0.115-29.089,0.076-43.634c-0.012-4.414,1.381-7.939,5.545-9.529c5.766-2.202,10.914,1.52,11.088,8.202
		c0.216,8.305,0.068,16.62,0.076,24.931C87.143,59.119,87.142,60.709,87.142,62.625z"/>
</g>
</svg>
