<?xml version="1.0" encoding="utf-8"?>
<!-- Generator: Adobe Illustrator 16.0.0, SVG Export Plug-In . SVG Version: 6.00 Build 0)  -->
<!DOCTYPE svg PUBLIC "-//W3C//DTD SVG 1.1//EN" "http://www.w3.org/Graphics/SVG/1.1/DTD/svg11.dtd">
<svg version="1.1" id="Calque_1" xmlns="http://www.w3.org/2000/svg" xmlns:xlink="http://www.w3.org/1999/xlink" x="0px" y="0px"
	 width="300px" height="300px" viewBox="0 0 300 300" enable-background="new 0 0 300 300" xml:space="preserve">
<g>
	<g>
		<g>
			<path d="M17.397,249.438h-4.101v-1.479h9.981v1.479h-4.121v12.003h-1.76V249.438z"/>
			<path d="M38.517,247.959v5.641h6.521v-5.641h1.76v13.482h-1.76v-6.321h-6.521v6.321h-1.74v-13.482H38.517z"/>
			<path d="M68.798,255.12h-5.241v4.861h5.841v1.46h-7.581v-13.482h7.281v1.46h-5.541v4.261h5.241V255.12z"/>
			<path d="M99.656,259.321c0.78,0.479,1.92,0.88,3.121,0.88c1.78,0,2.82-0.94,2.82-2.301c0-1.26-0.721-1.98-2.541-2.681
				c-2.2-0.78-3.561-1.92-3.561-3.82c0-2.101,1.74-3.661,4.361-3.661c1.38,0,2.38,0.32,2.98,0.66l-0.48,1.421
				c-0.439-0.24-1.34-0.641-2.561-0.641c-1.84,0-2.54,1.101-2.54,2.021c0,1.261,0.82,1.881,2.681,2.601
				c2.28,0.88,3.44,1.98,3.44,3.961c0,2.08-1.54,3.881-4.721,3.881c-1.301,0-2.721-0.38-3.441-0.86L99.656,259.321z"/>
			<path d="M121.756,248.118c0.84-0.14,1.94-0.26,3.341-0.26c1.72,0,2.98,0.4,3.78,1.12c0.74,0.641,1.181,1.62,1.181,2.821
				c0,1.22-0.36,2.18-1.04,2.88c-0.921,0.98-2.421,1.48-4.121,1.48c-0.521,0-1-0.02-1.4-0.12v5.401h-1.74V248.118z M123.496,254.62
				c0.38,0.1,0.86,0.14,1.44,0.14c2.101,0,3.381-1.02,3.381-2.881c0-1.78-1.261-2.64-3.181-2.64c-0.761,0-1.341,0.06-1.641,0.14
				V254.62z"/>
			<path d="M147.217,261.441v-5.722l-4.261-7.761h1.98l1.9,3.721c0.521,1.02,0.921,1.84,1.341,2.78h0.04
				c0.38-0.88,0.84-1.761,1.36-2.78l1.94-3.721h1.98l-4.521,7.741v5.741H147.217z"/>
			<path d="M168.637,247.959v13.482h-1.74v-13.482H168.637z"/>
			<path d="M183.677,261.441v-13.482h1.9l4.32,6.821c1.001,1.58,1.781,3,2.421,4.381l0.04-0.021c-0.16-1.8-0.2-3.44-0.2-5.541
				v-5.641h1.641v13.482h-1.761l-4.28-6.842c-0.94-1.5-1.841-3.04-2.521-4.501l-0.061,0.021c0.101,1.7,0.141,3.32,0.141,5.561v5.762
				H183.677z"/>
			<path d="M219.098,260.841c-0.78,0.28-2.32,0.74-4.141,0.74c-2.04,0-3.721-0.52-5.041-1.78c-1.16-1.12-1.881-2.92-1.881-5.021
				c0.021-4.021,2.781-6.962,7.302-6.962c1.561,0,2.781,0.34,3.361,0.62l-0.421,1.421c-0.72-0.32-1.62-0.58-2.98-0.58
				c-3.28,0-5.421,2.04-5.421,5.421c0,3.421,2.061,5.441,5.201,5.441c1.141,0,1.92-0.16,2.32-0.36v-4.021h-2.74v-1.399h4.44V260.841
				z"/>
			<path d="M240.737,255.12h-5.241v4.861h5.841v1.46h-7.581v-13.482h7.281v1.46h-5.541v4.261h5.241V255.12z"/>
			<path d="M255.596,248.139c0.88-0.18,2.141-0.28,3.341-0.28c1.86,0,3.061,0.34,3.9,1.101c0.681,0.6,1.061,1.521,1.061,2.561
				c0,1.78-1.12,2.96-2.541,3.44v0.061c1.04,0.359,1.661,1.319,1.98,2.72c0.44,1.881,0.761,3.181,1.04,3.701h-1.8
				c-0.22-0.38-0.521-1.54-0.9-3.221c-0.4-1.86-1.12-2.561-2.7-2.62h-1.641v5.841h-1.74V248.139z M257.336,254.28h1.78
				c1.86,0,3.041-1.021,3.041-2.561c0-1.741-1.261-2.501-3.101-2.521c-0.841,0-1.44,0.08-1.721,0.159V254.28z"/>
			<path d="M278.115,259.321c0.78,0.479,1.92,0.88,3.121,0.88c1.78,0,2.82-0.94,2.82-2.301c0-1.26-0.721-1.98-2.541-2.681
				c-2.2-0.78-3.561-1.92-3.561-3.82c0-2.101,1.74-3.661,4.361-3.661c1.38,0,2.38,0.32,2.98,0.66l-0.48,1.421
				c-0.439-0.24-1.34-0.641-2.561-0.641c-1.84,0-2.54,1.101-2.54,2.021c0,1.261,0.82,1.881,2.681,2.601
				c2.28,0.88,3.44,1.98,3.44,3.961c0,2.08-1.54,3.881-4.721,3.881c-1.301,0-2.721-0.38-3.441-0.86L278.115,259.321z"/>
		</g>
		<g>
			<g>
				<ellipse cx="148.083" cy="102.864" rx="79" ry="30.703"/>
			</g>
			<g>
				<ellipse cx="148.083" cy="53.162" rx="38.937" ry="14"/>
			</g>
			<polygon points="186.94,52.662 148.056,52.662 109.171,52.662 103.032,104.662 148.056,113.662 193.08,104.662 			"/>
			<g>
				<ellipse cx="148.083" cy="102.864" rx="79" ry="30.703"/>
			</g>
			<g>
				<ellipse cx="148.083" cy="53.162" rx="38.937" ry="14"/>
			</g>
			<polygon points="186.94,52.662 148.056,52.662 109.171,52.662 103.032,104.662 148.056,113.662 193.08,104.662 			"/>
			<path d="M147.75,136.662c0,0-30-1-46-6c0,0,5,16,11,21s24,4,25,4s5-11,10-11s9,11,10,11s19,1,25-4s11-21,11-21
				C177.75,135.662,147.75,136.662,147.75,136.662z"/>
			<path d="M147.75,136.662c0,0-30-1-46-6c0,0,5,16,11,21s24,4,25,4s5-11,10-11s9,11,10,11s19,1,25-4s11-21,11-21
				C177.75,135.662,147.75,136.662,147.75,136.662z"/>
			<g>
				<path d="M129.75,212.351c0,0-42.145-39.052-56.492-90.118c0,0-8.967,10.013-12.554,22.029
					C57.118,156.277,92.985,196.329,129.75,212.351z"/>
				<polygon points="87.414,183.903 30.217,197.555 21.25,222.662 46.357,222.662 49.944,202.935 97.469,188.588 				"/>
			</g>
			<g>
				<path d="M166.25,212.351c0,0,42.145-39.052,56.492-90.118c0,0,8.967,10.013,12.554,22.029
					C238.882,156.277,203.015,196.329,166.25,212.351z"/>
				<polygon points="208.586,183.903 265.783,197.555 274.75,222.662 249.643,222.662 246.056,202.935 198.531,188.588 				"/>
			</g>
			<path opacity="0.3" d="M141.083,57.496c0,0-0.306,0-0.83-0.011c-2.266-0.047-8.62-0.302-12.004-1.655l-5.813,61.146
				c0,0,5.125,2.813,14.549,3.209L141.083,57.496z"/>
			<path opacity="0.3" d="M121.917,153.871c0,0-5.435-0.732-9-4.042c-3.564-3.31-8.167-16.667-8.167-16.667s9,2.333,14.5,2.917
				C119.25,136.079,117.583,144.287,121.917,153.871z"/>
			<path opacity="0.53" d="M185.308,55.098l6.479,57.117c0,0-1.246,1.326-2.492,1.448l-5.605-58.564H185.308z"/>
			<path d="M181.21,151.662c0,0,5.331-3.211,11.241-19.398l-4.047,1.303C188.404,133.567,187.248,144.468,181.21,151.662z"/>
			<path opacity="0.3" d="M101.75,193.011c0,0-21.901-17.255-37.599-51.048c0,0-1.281,1.673-1.869,5.638
				C61.695,151.564,77.001,176.865,101.75,193.011z"/>
			<polygon opacity="0.3" points="87.482,185.481 31.26,198.785 23.278,221.344 30.103,221.344 35.887,201.1 89.681,187.333 			"/>
		</g>
	</g>
</g>
</svg>
