<?xml version="1.0" encoding="utf-8"?>
<!-- Generator: Adobe Illustrator 16.0.0, SVG Export Plug-In . SVG Version: 6.00 Build 0)  -->
<!DOCTYPE svg PUBLIC "-//W3C//DTD SVG 1.1//EN" "http://www.w3.org/Graphics/SVG/1.1/DTD/svg11.dtd">
<svg version="1.1" id="Calque_1" xmlns="http://www.w3.org/2000/svg" xmlns:xlink="http://www.w3.org/1999/xlink" x="0px" y="0px"
	 width="300px" height="300px" viewBox="0 0 566.93 566.93" enable-background="new 0 0 566.93 566.93" xml:space="preserve">
<g>
	<path fill="#1E1E1E" d="M283.463,449.476c-92.038,0-166.917-74.879-166.917-166.919c0-92.041,74.88-166.92,166.917-166.92
		c92.041,0,166.919,74.879,166.919,166.92C450.383,374.597,375.504,449.476,283.463,449.476z M283.463,118.136
		c-90.661,0-164.418,73.759-164.418,164.421c0,90.661,73.757,164.419,164.418,164.419c90.662,0,164.419-73.758,164.419-164.419
		C447.883,191.895,374.125,118.136,283.463,118.136z"/>
	<path fill="#1E1E1E" d="M283.463,558.933c-2.936,0-5.315-2.379-5.315-5.314V11.493c0-2.936,2.379-5.316,5.315-5.316
		c2.934,0,5.316,2.38,5.316,5.316v542.125C288.779,556.554,286.397,558.933,283.463,558.933z"/>
	<path fill="#1E1E1E" d="M554.529,287.871H12.401c-2.935,0-5.315-2.38-5.315-5.314c0-2.937,2.38-5.315,5.315-5.315h542.128
		c2.934,0,5.314,2.379,5.314,5.315C559.844,285.491,557.463,287.871,554.529,287.871z"/>
	<path fill="#1E1E1E" d="M283.463,402.423c-66.096,0-119.866-53.771-119.866-119.866c0-66.096,53.771-119.869,119.866-119.869
		c66.095,0,119.868,53.773,119.868,119.869C403.331,348.651,349.559,402.423,283.463,402.423z M283.463,165.188
		c-64.716,0-117.366,52.651-117.366,117.369s52.65,117.367,117.366,117.367c64.716,0,117.369-52.649,117.369-117.367
		S348.18,165.188,283.463,165.188z"/>
	<circle fill="#1E1E1E" cx="283.464" cy="282.556" r="46.967"/>
	<path fill="#1E1E1E" d="M283.463,426.1c-79.149,0-143.542-64.394-143.542-143.543c0-79.151,64.393-143.545,143.542-143.545
		c79.152,0,143.545,64.394,143.545,143.545C427.009,361.706,362.615,426.1,283.463,426.1z M283.463,141.512
		c-77.771,0-141.042,63.271-141.042,141.044c0,77.77,63.271,141.042,141.042,141.042c77.773,0,141.044-63.272,141.044-141.042
		C424.508,204.783,361.236,141.512,283.463,141.512z"/>
	<g>
		<path fill="#1E1E1E" d="M353.039,53.827h97.281c34.213,0,62.045,27.833,62.045,62.043v97.509h10.63v-97.509
			c0-40.074-32.6-72.674-72.675-72.674h-97.281V53.827z"/>
		<path fill="#1E1E1E" d="M54.109,213.38v-97.509c0-34.211,27.833-62.043,62.042-62.043h97.738V43.196h-97.738
			c-40.072,0-72.672,32.601-72.672,72.674v97.509H54.109z"/>
		<path fill="#1E1E1E" d="M213.89,512.084h-97.738c-34.209,0-62.042-27.832-62.042-62.044v-97.51h-10.63v97.51
			c0,40.073,32.601,72.674,72.672,72.674h97.738V512.084z"/>
		<path fill="#1E1E1E" d="M512.365,352.53v97.51c0,34.212-27.832,62.044-62.045,62.044h-97.281v10.63h97.281
			c40.075,0,72.675-32.601,72.675-72.674v-97.51H512.365z"/>
	</g>
</g>
</svg>
